<svg xmlns="http://www.w3.org/2000/svg" width="28" height="28" viewBox="0 0 28 28"><g fill="none"><path fill="url(#fluentColorDismissCircle280)" d="M26 14c0-6.627-5.373-12-12-12S2 7.373 2 14s5.373 12 12 12s12-5.373 12-12"/><path fill="url(#fluentColorDismissCircle281)" d="M18.28 9.72a.75.75 0 0 1 0 1.06L15.06 14l3.22 3.22a.75.75 0 1 1-1.06 1.06L14 15.06l-3.22 3.22a.75.75 0 1 1-1.06-1.06L12.94 14l-3.22-3.22a.75.75 0 1 1 1.06-1.06L14 12.94l3.22-3.22a.75.75 0 0 1 1.06 0"/><defs><linearGradient id="fluentColorDismissCircle280" x1="5.75" x2="21.5" y1="3.5" y2="26.75" gradientUnits="userSpaceOnUse"><stop stop-color="#f83f54"/><stop offset="1" stop-color="#ca2134"/></linearGradient><linearGradient id="fluentColorDismissCircle281" x1="10.023" x2="14.709" y1="14.398" y2="19.271" gradientUnits="userSpaceOnUse"><stop stop-color="#fdfdfd"/><stop offset="1" stop-color="#fecbe6"/></linearGradient></defs></g></svg>