<svg xmlns="http://www.w3.org/2000/svg" width="24" height="24" viewBox="0 0 24 24"><g fill="none"><path fill="url(#fluentColorErrorCircle240)" d="M12 2c5.523 0 10 4.478 10 10s-4.477 10-10 10S2 17.522 2 12S6.477 2 12 2"/><path fill="url(#fluentColorErrorCircle241)" d="M12.002 15.004a.999.999 0 1 0 0 1.997a.999.999 0 0 0 0-1.997M12 7a1 1 0 0 0-.993.884L11 8l.002 5.001l.007.117a1 1 0 0 0 1.986 0l.007-.117L13 8l-.007-.117A1 1 0 0 0 12 7"/><defs><linearGradient id="fluentColorErrorCircle240" x1="5.125" x2="18.25" y1="-1.125" y2="23.875" gradientUnits="userSpaceOnUse"><stop stop-color="#ffcd0f"/><stop offset="1" stop-color="#fe8401"/></linearGradient><linearGradient id="fluentColorErrorCircle241" x1="9.332" x2="14.134" y1="7" y2="17.252" gradientUnits="userSpaceOnUse"><stop stop-color="#4a4a4a"/><stop offset="1" stop-color="#212121"/></linearGradient></defs></g></svg>